<svg width="56" height="56" viewBox="0 0 56 56" fill="none" xmlns="http://www.w3.org/2000/svg">
<rect width="56" height="56" rx="18" fill="url(#paint0_linear_1207_41474)"/>
<path fill-rule="evenodd" clip-rule="evenodd" d="M31.4409 33.5019C30.4946 33.8813 29.6344 34.1849 28.6022 34.3367L27.828 37.5999H24.3011L25.0753 34.4125H20L22.9247 21.2837H28.086L28.6882 18.3999H32.2151L31.5269 21.5873C31.957 21.6631 32.3871 21.8149 32.7312 21.9667C33.7634 22.422 34.5376 23.105 35.1398 23.9398C35.7419 24.7746 36 25.6853 36 26.8236C36 28.2655 35.5699 29.6315 34.7957 30.7699C33.9355 31.9841 32.8172 32.8948 31.4409 33.5019ZM24.5592 31.0735L22.3227 31.6806H24.4732H27.3979C28.2581 31.6806 29.0323 31.453 29.7205 31.0735C30.4087 30.6941 30.9248 30.1628 31.3549 29.4798C31.785 28.7968 31.9571 28.0379 31.9571 27.2032C31.9571 26.2925 31.613 25.5336 31.0108 24.9265C30.4087 24.3953 29.5485 24.0917 28.5162 24.0917H26.2796H24.0431L26.0216 24.6988L24.5592 31.0735Z" fill="white"/>
<defs>
<linearGradient id="paint0_linear_1207_41474" x1="56" y1="56" x2="56" y2="0" gradientUnits="userSpaceOnUse">
<stop offset="0.00971284" stop-color="#5A61E7"/>
<stop offset="0.992874" stop-color="#3039E5"/>
</linearGradient>
</defs>
</svg>
